<svg xmlns="http://www.w3.org/2000/svg" width="100" height="100" enable-background="new 0 0 100 100" viewBox="0 0 100 100"><path fill="#0087AF" d="M49.74,95.866c25.352,0,45.977-20.625,45.977-45.978S75.092,3.911,49.74,3.911 c-25.353,0-45.979,20.625-45.979,45.978S24.387,95.866,49.74,95.866z M49.74,5.911c24.249,0,43.977,19.728,43.977,43.978 S73.989,93.866,49.74,93.866c-24.25,0-43.979-19.728-43.979-43.978S25.49,5.911,49.74,5.911z"/><path fill="#0087AF" d="M37.578 39.772h-9.115c-.552 0-1 .448-1 1v29.446c0 .552.448 1 1 1h9.115c.552 0 1-.448 1-1V40.772C38.578 40.22 38.13 39.772 37.578 39.772zM36.578 69.218h-7.115V41.772h7.115V69.218zM43.406 71.218h8.742c.552 0 1-.448 1-1V54.761c0-2.557.79-5.605 4.553-5.605.98 0 3.963 0 3.963 5.605v15.458c0 .552.448 1 1 1h9.07c.552 0 1-.448 1-1V51.574c0-7.953-4.379-12.701-11.713-12.701-3.765 0-6.324 1.602-7.873 3.061v-1.161c0-.552-.448-1-1-1h-8.742c-.552 0-1 .448-1 1v29.446C42.406 70.771 42.854 71.218 43.406 71.218zM44.406 41.772h6.742v2.965c0 .458.311.857.755.969.446.115.908-.091 1.125-.494.023-.043 2.41-4.34 7.993-4.34 6.173 0 9.713 3.9 9.713 10.701v17.644h-7.07V54.761c0-6.617-3.736-7.605-5.963-7.605-4.104 0-6.553 2.843-6.553 7.605v14.458h-6.742V41.772zM32.977 37.916c3.523 0 6.39-2.886 6.39-6.433 0-3.547-2.866-6.433-6.39-6.433s-6.39 2.886-6.39 6.433C26.587 35.03 29.453 37.916 32.977 37.916zM32.977 27.05c2.42 0 4.39 1.988 4.39 4.433s-1.969 4.433-4.39 4.433-4.39-1.989-4.39-4.433S30.556 27.05 32.977 27.05z"/></svg>